# xmcd
#
# Track frame offsets:
#	150
#	25022
#	46528
#	71643
#	99500
#	119608
#	141417
#	168542
#	200410
#	221369
#
# Disc length: 3195 seconds
#
# Revision: 1
# Processed by: cddbd v1.5.2PL0 Copyright (c) Steve Scherf et al.
# Submitted via: EZCDAudioConverter 8.0.2.1
#
DISCID=8c0c790a
DTITLE=Giang Tử - Nhật Ký Đời Tôi
DYEAR=2009
DGENRE=World Pop
TTITLE0=Nhật ký đời tôi
TTITLE1=Phận tơ tằm
TTITLE2=Xóm đêm
TTITLE3=Yêu một mình
TTITLE4=Được tin em lấy chồng
TTITLE5=Chuyện đêm mưa
TTITLE6=Đập vỡ cây đàn
TTITLE7=Hàn Mặc Tử
TTITLE8=Ngày cưới em
TTITLE9=Ngày đá đơn bông
EXTD=
EXTT0=
EXTT1=
EXTT2=
EXTT3=
EXTT4=
EXTT5=
EXTT6=
EXTT7=
EXTT8=
EXTT9=
PLAYORDER=
